<svg width="365" height="57" viewBox="0 0 365 57" fill="none" xmlns="http://www.w3.org/2000/svg">
<path d="M28.2275 1.02246C28.5728 1.35781 28.6834 2.04996 28.6834 2.41719V4.89614L29.5107 5.38628V5.13309C29.5107 4.9743 29.641 4.84648 29.8028 4.84648C29.9647 4.84648 30.095 4.9743 30.095 5.13309V5.73236L30.3843 5.90371V5.64347C30.3843 5.48468 30.5146 5.35686 30.6764 5.35686C30.8382 5.35686 30.9685 5.48468 30.9685 5.64347V6.24949L32.2639 7.01705V7.71717L28.6837 7.13997V8.83081H28.6724C28.6796 8.8774 28.6831 8.9243 28.6828 8.9712V18.3079C28.6828 20.061 27.2159 21.4999 25.4291 21.4999C24.6214 21.4999 24 22.1099 24 22.902C24 23.6941 24.6217 24.3041 25.4291 24.3041H30.1118C31.8986 24.3041 33.3655 25.7432 33.3655 27.4963C33.3655 29.2494 31.8986 30.6882 30.1118 30.6882C29.3042 30.6882 28.6828 31.2983 28.6828 32.0903V48.0225H34.0419C35.5494 48.0225 36.7701 46.9741 36.7701 45.672V33.352H49.5765C50.919 33.352 52 32.1581 52 30.6754V18.3699C52 16.8875 50.919 15.6932 49.5765 15.6932H36.7701V3.37327C36.7701 2.07112 35.5532 1.02246 34.0419 1.02246H28.2275Z" fill="url(#paint0_linear_109_3)"/>
<g filter="url(#filter0_d_109_3)">
<path d="M21.9583 1.02246C20.4508 1.02246 19.2301 2.07081 19.2301 3.37327V15.6932H6.42358C5.08103 15.6932 4 16.8875 4 18.3699V30.6754C4 32.1584 5.08103 33.352 6.42358 33.352H19.2301V45.672C19.2301 46.9741 20.447 48.0225 21.9583 48.0225H27.3175V32.0903C27.3175 30.3373 28.7844 28.8981 30.5709 28.8981C31.3786 28.8981 32 28.2881 32 27.496C32 26.7039 31.3782 26.0939 30.5709 26.0939H25.8881C24.1013 26.0939 22.6347 24.6547 22.6347 22.902C22.6347 21.1492 24.1016 19.7097 25.8881 19.7097C26.6958 19.7097 27.3172 19.0997 27.3172 18.3076V8.9709C27.3166 8.924 27.32 8.8771 27.3269 8.83051H27.3166V7.13966L23.7363 7.71687V7.01674L25.0317 6.24949V5.64316C25.0317 5.48438 25.162 5.35655 25.3238 5.35655C25.4857 5.35655 25.616 5.48438 25.616 5.64316V5.90341L25.9053 5.73206V5.13278C25.9053 4.974 26.0356 4.84617 26.1974 4.84617C26.3593 4.84617 26.4895 4.974 26.4895 5.13278V5.38598L27.3166 4.89583V2.41719C27.3166 2.04996 27.4112 1.35781 27.7602 1.02246H21.9583Z" fill="url(#paint1_linear_109_3)"/>
<path d="M57.8801 20V5.54688H60.7219L64.7258 16.7285L68.8469 5.54688H71.386V20H69.4719V8.24219L65.4875 19.0332H63.5051L59.6379 8.21289V20H57.8801ZM75.1067 20V5.54688H83.1829V7.08008H77.1575V11.7188H82.2063V13.2324H77.1575V18.4668H83.6028V20H75.1067ZM85.9465 20V5.54688H90.7512C92.1835 5.54688 93.3391 5.70638 94.218 6.02539C95.1034 6.3444 95.8684 6.88477 96.5129 7.64648C97.5351 8.85742 98.0461 10.4525 98.0461 12.4316C98.0461 14.834 97.4114 16.696 96.1418 18.0176C94.8723 19.3392 93.0852 20 90.7805 20H85.9465ZM87.9973 18.4668H90.6243C92.4993 18.4668 93.8274 17.9622 94.6086 16.9531C95.4485 15.8789 95.8684 14.4368 95.8684 12.627C95.8684 10.9277 95.455 9.5931 94.6282 8.62305C94.1269 8.0306 93.5279 7.62695 92.8313 7.41211C92.1347 7.19076 91.0865 7.08008 89.6868 7.08008H87.9973V18.4668ZM100.917 20V5.54688H102.968V20H100.917ZM106.689 20V5.54688H108.7L115.976 16.709V5.54688H117.734V20H115.732L108.447 8.83789V20H106.689ZM121.474 20V5.54688H126.279C127.711 5.54688 128.866 5.70638 129.745 6.02539C130.631 6.3444 131.396 6.88477 132.04 7.64648C133.062 8.85742 133.573 10.4525 133.573 12.4316C133.573 14.834 132.939 16.696 131.669 18.0176C130.4 19.3392 128.613 20 126.308 20H121.474ZM123.525 18.4668H126.152C128.027 18.4668 129.355 17.9622 130.136 16.9531C130.976 15.8789 131.396 14.4368 131.396 12.627C131.396 10.9277 130.982 9.5931 130.156 8.62305C129.654 8.0306 129.055 7.62695 128.359 7.41211C127.662 7.19076 126.614 7.08008 125.214 7.08008H123.525V18.4668ZM136.445 20V5.54688H138.495V20H136.445ZM149.54 14.4727L147.079 8.24219L144.609 14.4727H149.54ZM151.708 20L150.136 15.9961H144.013L142.421 20H140.517L146.249 5.54688H148.281L153.925 20H151.708ZM166.884 19.6094C165.133 20.1107 163.606 20.3613 162.304 20.3613C160.006 20.3613 158.241 19.707 157.011 18.3984C155.787 17.0898 155.175 15.2148 155.175 12.7734C155.175 10.3776 155.797 8.51562 157.04 7.1875C158.284 5.85286 160.029 5.18555 162.275 5.18555C163.746 5.18555 165.276 5.40365 166.865 5.83984V7.73438C164.872 7.05729 163.346 6.71875 162.284 6.71875C160.722 6.71875 159.508 7.24935 158.642 8.31055C157.782 9.37174 157.353 10.8659 157.353 12.793C157.353 14.7005 157.815 16.1849 158.74 17.2461C159.664 18.3008 160.96 18.8281 162.626 18.8281C163.31 18.8281 164.049 18.7077 164.843 18.4668V13.7598H166.884V19.6094ZM176.298 20.3613C174.293 20.3613 172.678 19.668 171.454 18.2812C170.237 16.888 169.628 15.0488 169.628 12.7637C169.628 10.4655 170.24 8.62956 171.464 7.25586C172.695 5.87565 174.335 5.18555 176.386 5.18555C178.43 5.18555 180.068 5.8724 181.298 7.24609C182.529 8.61979 183.144 10.4525 183.144 12.7441C183.144 15.0814 182.529 16.9368 181.298 18.3105C180.068 19.6777 178.401 20.3613 176.298 20.3613ZM176.327 18.8281C177.805 18.8281 178.948 18.2975 179.755 17.2363C180.562 16.1686 180.966 14.6647 180.966 12.7246C180.966 10.8431 180.559 9.37174 179.745 8.31055C178.938 7.24935 177.818 6.71875 176.386 6.71875C174.947 6.71875 173.824 7.2526 173.017 8.32031C172.21 9.38151 171.806 10.8594 171.806 12.7539C171.806 14.6419 172.206 16.1263 173.007 17.207C173.808 18.2878 174.915 18.8281 176.327 18.8281ZM186.113 20V17.5879H188.525V20H186.113ZM198.544 20.3613C196.298 20.3613 194.563 19.7038 193.339 18.3887C192.115 17.0671 191.503 15.1986 191.503 12.7832C191.503 10.3743 192.125 8.50586 193.368 7.17773C194.618 5.84961 196.376 5.18555 198.642 5.18555C199.937 5.18555 201.454 5.39714 203.193 5.82031V7.74414C201.213 7.06055 199.687 6.71875 198.613 6.71875C197.044 6.71875 195.829 7.24935 194.97 8.31055C194.111 9.37174 193.681 10.8691 193.681 12.8027C193.681 14.6452 194.14 16.1003 195.058 17.168C195.976 18.2292 197.229 18.7598 198.818 18.7598C200.185 18.7598 201.65 18.3398 203.212 17.5V19.2578C201.786 19.9935 200.23 20.3613 198.544 20.3613ZM212.021 20.3613C210.016 20.3613 208.401 19.668 207.177 18.2812C205.96 16.888 205.351 15.0488 205.351 12.7637C205.351 10.4655 205.963 8.62956 207.187 7.25586C208.417 5.87565 210.058 5.18555 212.109 5.18555C214.153 5.18555 215.79 5.8724 217.021 7.24609C218.251 8.61979 218.866 10.4525 218.866 12.7441C218.866 15.0814 218.251 16.9368 217.021 18.3105C215.79 19.6777 214.124 20.3613 212.021 20.3613ZM212.05 18.8281C213.528 18.8281 214.67 18.2975 215.478 17.2363C216.285 16.1686 216.689 14.6647 216.689 12.7246C216.689 10.8431 216.282 9.37174 215.468 8.31055C214.661 7.24935 213.541 6.71875 212.109 6.71875C210.67 6.71875 209.547 7.2526 208.74 8.32031C207.932 9.38151 207.529 10.8594 207.529 12.7539C207.529 14.6419 207.929 16.1263 208.73 17.207C209.531 18.2878 210.637 18.8281 212.05 18.8281ZM221.747 20V5.54688H224.589L228.593 16.7285L232.714 5.54688H235.253V20H233.339V8.24219L229.355 19.0332H227.372L223.505 8.21289V20H221.747Z" fill="#1595CF"/>
<path d="M64.2859 38.6533C63.1475 38.9792 62.1552 39.1421 61.3088 39.1421C59.815 39.1421 58.6682 38.7168 57.8684 37.8662C57.0728 37.0156 56.675 35.7969 56.675 34.21C56.675 32.6527 57.0792 31.4424 57.8875 30.5791C58.6957 29.7116 59.8298 29.2778 61.2898 29.2778C62.2462 29.2778 63.2406 29.4196 64.2732 29.7031V30.9346C62.9783 30.4945 61.9859 30.2744 61.2961 30.2744C60.2805 30.2744 59.4913 30.6193 58.9285 31.3091C58.3699 31.9989 58.0906 32.9701 58.0906 34.2227C58.0906 35.4626 58.391 36.4274 58.9919 37.1172C59.5929 37.8027 60.435 38.1455 61.5183 38.1455C61.9626 38.1455 62.443 38.0672 62.9592 37.9106V34.8511H64.2859V38.6533ZM66.6599 38.9072V28.8843H67.9104V38.9072H66.6599ZM73.1155 39.0659C72.1295 39.0659 71.3424 38.7401 70.7542 38.0884C70.1659 37.4325 69.8718 36.5565 69.8718 35.4604C69.8718 34.3517 70.1659 33.4757 70.7542 32.8325C71.3466 32.1851 72.1485 31.8613 73.1599 31.8613C74.1713 31.8613 74.9711 32.1851 75.5593 32.8325C76.1518 33.4757 76.448 34.3475 76.448 35.4478C76.448 36.5734 76.1518 37.4578 75.5593 38.1011C74.9669 38.7443 74.1523 39.0659 73.1155 39.0659ZM73.1345 38.1265C74.4591 38.1265 75.1213 37.2336 75.1213 35.4478C75.1213 33.6831 74.4675 32.8008 73.1599 32.8008C71.8565 32.8008 71.2048 33.6873 71.2048 35.4604C71.2048 37.2378 71.8481 38.1265 73.1345 38.1265ZM78.4031 38.9834V28.8843H79.6536V33.3086C80.1656 32.3438 80.9337 31.8613 81.9578 31.8613C82.7872 31.8613 83.4389 32.1639 83.9128 32.769C84.391 33.3742 84.6301 34.2015 84.6301 35.251C84.6301 36.3936 84.3593 37.3161 83.8176 38.0186C83.2802 38.7168 82.5714 39.0659 81.6912 39.0659C80.8744 39.0659 80.1952 38.7528 79.6536 38.1265L79.5012 38.9834H78.4031ZM79.6536 37.2632C80.2968 37.8387 80.9104 38.1265 81.4944 38.1265C82.6962 38.1265 83.2971 37.2103 83.2971 35.3779C83.2971 33.7614 82.7639 32.9531 81.6975 32.9531C80.9993 32.9531 80.318 33.3319 79.6536 34.0894V37.2632ZM90.1462 38.0312C89.3972 38.721 88.6757 39.0659 87.9817 39.0659C87.4104 39.0659 86.9364 38.8882 86.5598 38.5327C86.1832 38.173 85.9949 37.7202 85.9949 37.1743C85.9949 36.4211 86.3101 35.8434 86.9407 35.4414C87.5754 35.0352 88.4832 34.832 89.6638 34.832H89.9622V34.0005C89.9622 33.2007 89.5517 32.8008 88.7307 32.8008C88.0706 32.8008 87.3575 33.0039 86.5916 33.4102V32.3755C87.4337 32.0327 88.2229 31.8613 88.9592 31.8613C89.7294 31.8613 90.2965 32.0348 90.6604 32.3818C91.0286 32.7288 91.2126 33.2684 91.2126 34.0005V37.1235C91.2126 37.8387 91.4327 38.1963 91.8728 38.1963C91.9278 38.1963 92.0082 38.1878 92.114 38.1709L92.2029 38.8628C91.9194 38.9982 91.6062 39.0659 91.2634 39.0659C90.6794 39.0659 90.307 38.721 90.1462 38.0312ZM89.9622 37.3521V35.5684L89.5432 35.5557C88.8577 35.5557 88.3033 35.6868 87.8801 35.9492C87.4569 36.2074 87.2454 36.548 87.2454 36.9712C87.2454 37.2716 87.3512 37.5256 87.5627 37.7329C87.7743 37.9403 88.0325 38.0439 88.3372 38.0439C88.8577 38.0439 89.3993 37.8133 89.9622 37.3521ZM93.7771 38.9072V28.8843H95.0276V38.9072H93.7771ZM101.61 38.9072V29.5127H102.943V33.4736H107.412V29.5127H108.745V38.9072H107.412V34.4702H102.943V38.9072H101.61ZM116.26 38.6851C115.423 38.939 114.705 39.0659 114.109 39.0659C113.093 39.0659 112.264 38.7295 111.62 38.0566C110.981 37.3796 110.662 36.5036 110.662 35.4287C110.662 34.3835 110.943 33.5265 111.506 32.8579C112.073 32.1893 112.797 31.855 113.677 31.855C114.511 31.855 115.154 32.1512 115.607 32.7437C116.064 33.3361 116.292 34.1782 116.292 35.27L116.286 35.6572H111.938C112.12 37.2949 112.922 38.1138 114.344 38.1138C114.864 38.1138 115.503 37.9741 116.26 37.6948V38.6851ZM111.995 34.7178H115.035C115.035 33.4355 114.557 32.7944 113.601 32.7944C112.64 32.7944 112.105 33.4355 111.995 34.7178ZM122.011 38.0312C121.262 38.721 120.541 39.0659 119.847 39.0659C119.276 39.0659 118.802 38.8882 118.425 38.5327C118.048 38.173 117.86 37.7202 117.86 37.1743C117.86 36.4211 118.175 35.8434 118.806 35.4414C119.441 35.0352 120.348 34.832 121.529 34.832H121.827V34.0005C121.827 33.2007 121.417 32.8008 120.596 32.8008C119.936 32.8008 119.223 33.0039 118.457 33.4102V32.3755C119.299 32.0327 120.088 31.8613 120.824 31.8613C121.595 31.8613 122.162 32.0348 122.526 32.3818C122.894 32.7288 123.078 33.2684 123.078 34.0005V37.1235C123.078 37.8387 123.298 38.1963 123.738 38.1963C123.793 38.1963 123.873 38.1878 123.979 38.1709L124.068 38.8628C123.785 38.9982 123.471 39.0659 123.129 39.0659C122.545 39.0659 122.172 38.721 122.011 38.0312ZM121.827 37.3521V35.5684L121.408 35.5557C120.723 35.5557 120.169 35.6868 119.745 35.9492C119.322 36.2074 119.111 36.548 119.111 36.9712C119.111 37.2716 119.216 37.5256 119.428 37.7329C119.64 37.9403 119.898 38.0439 120.202 38.0439C120.723 38.0439 121.265 37.8133 121.827 37.3521ZM125.642 38.9072V28.8843H126.893V38.9072H125.642ZM131.469 39.0659C130.835 39.0659 130.34 38.884 129.984 38.52C129.629 38.1561 129.451 37.6504 129.451 37.0029V32.9531H128.588V32.0137H129.451V30.7632L130.701 30.6426V32.0137H132.504V32.9531H130.701V36.7744C130.701 37.6758 131.091 38.1265 131.869 38.1265C132.034 38.1265 132.235 38.099 132.472 38.0439V38.9072C132.087 39.013 131.753 39.0659 131.469 39.0659ZM134.262 38.9072V28.8843H135.513V33.3086C136.173 32.3438 136.981 31.8613 137.938 31.8613C138.534 31.8613 139.01 32.0518 139.366 32.4326C139.721 32.8092 139.899 33.3171 139.899 33.9561V38.9072H138.649V34.3623C138.649 33.8503 138.573 33.4863 138.42 33.2705C138.272 33.0505 138.024 32.9404 137.677 32.9404C136.912 32.9404 136.19 33.4419 135.513 34.4448V38.9072H134.262ZM145.028 39.0659C144.097 39.0659 143.325 38.721 142.711 38.0312C142.098 37.3415 141.791 36.4718 141.791 35.4224C141.791 34.3009 142.093 33.4271 142.698 32.8008C143.308 32.1745 144.156 31.8613 145.244 31.8613C145.781 31.8613 146.382 31.9354 147.047 32.0835V33.1309C146.34 32.9235 145.764 32.8198 145.32 32.8198C144.681 32.8198 144.167 33.061 143.778 33.5435C143.392 34.0216 143.2 34.6606 143.2 35.4604C143.2 36.2349 143.399 36.8612 143.797 37.3394C144.194 37.8175 144.715 38.0566 145.358 38.0566C145.929 38.0566 146.518 37.9106 147.123 37.6187V38.6978C146.315 38.9432 145.616 39.0659 145.028 39.0659ZM152.556 38.0312C151.807 38.721 151.086 39.0659 150.392 39.0659C149.821 39.0659 149.347 38.8882 148.97 38.5327C148.593 38.173 148.405 37.7202 148.405 37.1743C148.405 36.4211 148.72 35.8434 149.351 35.4414C149.986 35.0352 150.893 34.832 152.074 34.832H152.372V34.0005C152.372 33.2007 151.962 32.8008 151.141 32.8008C150.481 32.8008 149.768 33.0039 149.002 33.4102V32.3755C149.844 32.0327 150.633 31.8613 151.369 31.8613C152.14 31.8613 152.707 32.0348 153.071 32.3818C153.439 32.7288 153.623 33.2684 153.623 34.0005V37.1235C153.623 37.8387 153.843 38.1963 154.283 38.1963C154.338 38.1963 154.418 38.1878 154.524 38.1709L154.613 38.8628C154.33 38.9982 154.016 39.0659 153.674 39.0659C153.09 39.0659 152.717 38.721 152.556 38.0312ZM152.372 37.3521V35.5684L151.953 35.5557C151.268 35.5557 150.713 35.6868 150.29 35.9492C149.867 36.2074 149.656 36.548 149.656 36.9712C149.656 37.2716 149.761 37.5256 149.973 37.7329C150.184 37.9403 150.443 38.0439 150.747 38.0439C151.268 38.0439 151.809 37.8133 152.372 37.3521ZM156.187 38.9072V32.0137H157.438V33.3086C157.933 32.3438 158.652 31.8613 159.596 31.8613C159.723 31.8613 159.856 31.8719 159.996 31.8931V33.061C159.78 32.9891 159.59 32.9531 159.425 32.9531C158.633 32.9531 157.971 33.4229 157.438 34.3623V38.9072H156.187ZM166.559 38.6851C165.721 38.939 165.004 39.0659 164.407 39.0659C163.392 39.0659 162.562 38.7295 161.919 38.0566C161.28 37.3796 160.961 36.5036 160.961 35.4287C160.961 34.3835 161.242 33.5265 161.805 32.8579C162.372 32.1893 163.096 31.855 163.976 31.855C164.809 31.855 165.453 32.1512 165.906 32.7437C166.363 33.3361 166.591 34.1782 166.591 35.27L166.585 35.6572H162.237C162.419 37.2949 163.22 38.1138 164.642 38.1138C165.163 38.1138 165.802 37.9741 166.559 37.6948V38.6851ZM162.294 34.7178H165.334C165.334 33.4355 164.856 32.7944 163.9 32.7944C162.939 32.7944 162.404 33.4355 162.294 34.7178ZM172.869 38.9072V32.0137H174.119V33.3086C174.729 32.3438 175.512 31.8613 176.468 31.8613C177.391 31.8613 178.019 32.3438 178.353 33.3086C178.946 32.3395 179.716 31.855 180.664 31.855C181.273 31.855 181.745 32.0348 182.079 32.3945C182.414 32.75 182.581 33.2493 182.581 33.8926V38.9072H181.324V34.0894C181.324 33.3022 181.013 32.9087 180.391 32.9087C179.743 32.9087 179.064 33.3678 178.353 34.2861V38.9072H177.096V34.0894C177.096 33.298 176.779 32.9023 176.144 32.9023C175.514 32.9023 174.839 33.3636 174.119 34.2861V38.9072H172.869ZM188.56 38.0312C187.811 38.721 187.09 39.0659 186.396 39.0659C185.824 39.0659 185.351 38.8882 184.974 38.5327C184.597 38.173 184.409 37.7202 184.409 37.1743C184.409 36.4211 184.724 35.8434 185.355 35.4414C185.99 35.0352 186.897 34.832 188.078 34.832H188.376V34.0005C188.376 33.2007 187.966 32.8008 187.145 32.8008C186.485 32.8008 185.772 33.0039 185.006 33.4102V32.3755C185.848 32.0327 186.637 31.8613 187.373 31.8613C188.143 31.8613 188.711 32.0348 189.074 32.3818C189.443 32.7288 189.627 33.2684 189.627 34.0005V37.1235C189.627 37.8387 189.847 38.1963 190.287 38.1963C190.342 38.1963 190.422 38.1878 190.528 38.1709L190.617 38.8628C190.333 38.9982 190.02 39.0659 189.677 39.0659C189.094 39.0659 188.721 38.721 188.56 38.0312ZM188.376 37.3521V35.5684L187.957 35.5557C187.272 35.5557 186.717 35.6868 186.294 35.9492C185.871 36.2074 185.659 36.548 185.659 36.9712C185.659 37.2716 185.765 37.5256 185.977 37.7329C186.188 37.9403 186.447 38.0439 186.751 38.0439C187.272 38.0439 187.813 37.8133 188.376 37.3521ZM196.615 38.9072V37.6123C196.108 38.5814 195.342 39.0659 194.318 39.0659C193.488 39.0659 192.834 38.7633 192.356 38.1582C191.882 37.5531 191.645 36.7257 191.645 35.6763C191.645 34.5295 191.914 33.6069 192.451 32.9087C192.993 32.2104 193.704 31.8613 194.584 31.8613C195.401 31.8613 196.078 32.1745 196.615 32.8008V28.8843H197.872V38.9072H196.615ZM196.615 33.6577C195.968 33.0864 195.354 32.8008 194.775 32.8008C193.577 32.8008 192.978 33.717 192.978 35.5493C192.978 37.1616 193.511 37.9678 194.578 37.9678C195.272 37.9678 195.951 37.589 196.615 36.8315V33.6577ZM205.432 38.6851C204.594 38.939 203.877 39.0659 203.281 39.0659C202.265 39.0659 201.435 38.7295 200.792 38.0566C200.153 37.3796 199.834 36.5036 199.834 35.4287C199.834 34.3835 200.115 33.5265 200.678 32.8579C201.245 32.1893 201.969 31.855 202.849 31.855C203.683 31.855 204.326 32.1512 204.779 32.7437C205.236 33.3361 205.464 34.1782 205.464 35.27L205.458 35.6572H201.11C201.292 37.2949 202.094 38.1138 203.515 38.1138C204.036 38.1138 204.675 37.9741 205.432 37.6948V38.6851ZM201.167 34.7178H204.207C204.207 33.4355 203.729 32.7944 202.773 32.7944C201.812 32.7944 201.277 33.4355 201.167 34.7178ZM211.704 38.9072V29.5127H214.262C215.396 29.5127 216.211 29.7052 216.706 30.0903C217.201 30.4712 217.448 31.0996 217.448 31.9756C217.448 32.9743 217.11 33.7572 216.433 34.3242C215.756 34.8913 214.816 35.1748 213.615 35.1748H213.024V38.9072H211.704ZM213.024 34.1655H213.564C214.355 34.1655 214.967 33.9836 215.398 33.6196C215.83 33.2557 216.046 32.7415 216.046 32.0771C216.046 31.5143 215.876 31.1123 215.538 30.8711C215.199 30.6299 214.634 30.5093 213.843 30.5093H213.024V34.1655ZM223.98 38.6851C223.142 38.939 222.425 39.0659 221.828 39.0659C220.813 39.0659 219.983 38.7295 219.34 38.0566C218.701 37.3796 218.382 36.5036 218.382 35.4287C218.382 34.3835 218.663 33.5265 219.226 32.8579C219.793 32.1893 220.517 31.855 221.397 31.855C222.23 31.855 222.874 32.1512 223.326 32.7437C223.783 33.3361 224.012 34.1782 224.012 35.27L224.006 35.6572H219.657C219.839 37.2949 220.641 38.1138 222.063 38.1138C222.584 38.1138 223.223 37.9741 223.98 37.6948V38.6851ZM219.715 34.7178H222.755C222.755 33.4355 222.277 32.7944 221.321 32.7944C220.36 32.7944 219.825 33.4355 219.715 34.7178ZM226.177 38.9072V32.0137H227.427V33.3086C227.922 32.3438 228.642 31.8613 229.585 31.8613C229.712 31.8613 229.845 31.8719 229.985 31.8931V33.061C229.769 32.9891 229.579 32.9531 229.414 32.9531C228.622 32.9531 227.96 33.4229 227.427 34.3623V38.9072H226.177ZM233.324 39.0659C232.753 39.0659 232.059 38.9326 231.242 38.666V37.5171C232.059 37.9233 232.77 38.1265 233.375 38.1265C233.734 38.1265 234.033 38.0291 234.27 37.8345C234.507 37.6398 234.625 37.3965 234.625 37.1045C234.625 36.6771 234.293 36.3237 233.629 36.0444L232.899 35.7334C231.82 35.2848 231.28 34.6395 231.28 33.7974C231.28 33.1965 231.492 32.7246 231.915 32.3818C232.342 32.0348 232.926 31.8613 233.667 31.8613C234.052 31.8613 234.528 31.9142 235.095 32.02L235.355 32.0708V33.1118C234.657 32.9045 234.103 32.8008 233.692 32.8008C232.888 32.8008 232.486 33.0928 232.486 33.6768C232.486 34.0534 232.791 34.3708 233.4 34.6289L234.003 34.8828C234.684 35.1706 235.167 35.4753 235.45 35.7969C235.734 36.1143 235.876 36.512 235.876 36.9902C235.876 37.5954 235.637 38.0926 235.158 38.4819C234.68 38.8713 234.069 39.0659 233.324 39.0659ZM240.821 39.0659C239.835 39.0659 239.047 38.7401 238.459 38.0884C237.871 37.4325 237.577 36.5565 237.577 35.4604C237.577 34.3517 237.871 33.4757 238.459 32.8325C239.052 32.1851 239.854 31.8613 240.865 31.8613C241.876 31.8613 242.676 32.1851 243.264 32.8325C243.857 33.4757 244.153 34.3475 244.153 35.4478C244.153 36.5734 243.857 37.4578 243.264 38.1011C242.672 38.7443 241.857 39.0659 240.821 39.0659ZM240.84 38.1265C242.164 38.1265 242.826 37.2336 242.826 35.4478C242.826 33.6831 242.173 32.8008 240.865 32.8008C239.562 32.8008 238.91 33.6873 238.91 35.4604C238.91 37.2378 239.553 38.1265 240.84 38.1265ZM246.108 38.9072V32.0137H247.359V33.3086C248.019 32.3438 248.827 31.8613 249.783 31.8613C250.38 31.8613 250.856 32.0518 251.212 32.4326C251.567 32.8092 251.745 33.3171 251.745 33.9561V38.9072H250.494V34.3623C250.494 33.8503 250.418 33.4863 250.266 33.2705C250.118 33.0505 249.87 32.9404 249.523 32.9404C248.757 32.9404 248.036 33.4419 247.359 34.4448V38.9072H246.108ZM257.737 38.0312C256.988 38.721 256.267 39.0659 255.573 39.0659C255.001 39.0659 254.527 38.8882 254.151 38.5327C253.774 38.173 253.586 37.7202 253.586 37.1743C253.586 36.4211 253.901 35.8434 254.531 35.4414C255.166 35.0352 256.074 34.832 257.255 34.832H257.553V34.0005C257.553 33.2007 257.142 32.8008 256.322 32.8008C255.661 32.8008 254.948 33.0039 254.182 33.4102V32.3755C255.024 32.0327 255.814 31.8613 256.55 31.8613C257.32 31.8613 257.887 32.0348 258.251 32.3818C258.619 32.7288 258.803 33.2684 258.803 34.0005V37.1235C258.803 37.8387 259.024 38.1963 259.464 38.1963C259.519 38.1963 259.599 38.1878 259.705 38.1709L259.794 38.8628C259.51 38.9982 259.197 39.0659 258.854 39.0659C258.27 39.0659 257.898 38.721 257.737 38.0312ZM257.553 37.3521V35.5684L257.134 35.5557C256.448 35.5557 255.894 35.6868 255.471 35.9492C255.048 36.2074 254.836 36.548 254.836 36.9712C254.836 37.2716 254.942 37.5256 255.154 37.7329C255.365 37.9403 255.623 38.0439 255.928 38.0439C256.448 38.0439 256.99 37.8133 257.553 37.3521ZM261.368 38.9072V28.8843H262.618V38.9072H261.368Z" fill="#15CFCF"/>
</g>
<defs>
<filter id="filter0_d_109_3" x="0" y="1.02246" width="266.618" height="55" filterUnits="userSpaceOnUse" color-interpolation-filters="sRGB">
<feFlood flood-opacity="0" result="BackgroundImageFix"/>
<feColorMatrix in="SourceAlpha" type="matrix" values="0 0 0 0 0 0 0 0 0 0 0 0 0 0 0 0 0 0 127 0" result="hardAlpha"/>
<feOffset dy="4"/>
<feGaussianBlur stdDeviation="2"/>
<feComposite in2="hardAlpha" operator="out"/>
<feColorMatrix type="matrix" values="0 0 0 0 0 0 0 0 0 0 0 0 0 0 0 0 0 0 0.25 0"/>
<feBlend mode="normal" in2="BackgroundImageFix" result="effect1_dropShadow_109_3"/>
<feBlend mode="normal" in="SourceGraphic" in2="effect1_dropShadow_109_3" result="shape"/>
</filter>
<linearGradient id="paint0_linear_109_3" x1="26.4813" y1="18.9955" x2="49.7124" y2="42.6737" gradientUnits="userSpaceOnUse">
<stop stop-color="#1595CF"/>
<stop offset="1" stop-color="#15CFCF"/>
</linearGradient>
<linearGradient id="paint1_linear_109_3" x1="49.1728" y1="-0.287362" x2="13.7261" y2="35.8419" gradientUnits="userSpaceOnUse">
<stop stop-color="#034C7E"/>
<stop offset="1" stop-color="#0470BA"/>
</linearGradient>
</defs>
</svg>
